<svg id="visual" viewBox="0 0 900 600" width="900" height="600" xmlns="http://www.w3.org/2000/svg" xmlns:xlink="http://www.w3.org/1999/xlink" version="1.1"><rect x="0" y="0" width="900" height="600" fill="#001220"></rect><path d="M0 441L21.5 436.5C43 432 86 423 128.8 408.5C171.7 394 214.3 374 257.2 367.8C300 361.7 343 369.3 385.8 381.5C428.7 393.7 471.3 410.3 514.2 414.2C557 418 600 409 642.8 410.2C685.7 411.3 728.3 422.7 771.2 420C814 417.3 857 400.7 878.5 392.3L900 384L900 601L878.5 601C857 601 814 601 771.2 601C728.3 601 685.7 601 642.8 601C600 601 557 601 514.2 601C471.3 601 428.7 601 385.8 601C343 601 300 601 257.2 601C214.3 601 171.7 601 128.8 601C86 601 43 601 21.5 601L0 601Z" fill="#fa7268"></path><path d="M0 463L21.5 461.3C43 459.7 86 456.3 128.8 457C171.7 457.7 214.3 462.3 257.2 458.5C300 454.7 343 442.3 385.8 436C428.7 429.7 471.3 429.3 514.2 426.3C557 423.3 600 417.7 642.8 423.7C685.7 429.7 728.3 447.3 771.2 451C814 454.7 857 444.3 878.5 439.2L900 434L900 601L878.5 601C857 601 814 601 771.2 601C728.3 601 685.7 601 642.8 601C600 601 557 601 514.2 601C471.3 601 428.7 601 385.8 601C343 601 300 601 257.2 601C214.3 601 171.7 601 128.8 601C86 601 43 601 21.5 601L0 601Z" fill="#ef5f67"></path><path d="M0 486L21.5 483.7C43 481.3 86 476.7 128.8 468.7C171.7 460.7 214.3 449.3 257.2 447.8C300 446.3 343 454.7 385.8 463C428.7 471.3 471.3 479.7 514.2 477C557 474.3 600 460.7 642.8 458.2C685.7 455.7 728.3 464.3 771.2 468C814 471.7 857 470.3 878.5 469.7L900 469L900 601L878.5 601C857 601 814 601 771.2 601C728.3 601 685.7 601 642.8 601C600 601 557 601 514.2 601C471.3 601 428.7 601 385.8 601C343 601 300 601 257.2 601C214.3 601 171.7 601 128.8 601C86 601 43 601 21.5 601L0 601Z" fill="#e34c67"></path><path d="M0 540L21.5 530.5C43 521 86 502 128.8 501.8C171.7 501.7 214.3 520.3 257.2 523.7C300 527 343 515 385.8 507.8C428.7 500.7 471.3 498.3 514.2 497.7C557 497 600 498 642.8 499.8C685.7 501.7 728.3 504.3 771.2 503C814 501.7 857 496.3 878.5 493.7L900 491L900 601L878.5 601C857 601 814 601 771.2 601C728.3 601 685.7 601 642.8 601C600 601 557 601 514.2 601C471.3 601 428.7 601 385.8 601C343 601 300 601 257.2 601C214.3 601 171.7 601 128.8 601C86 601 43 601 21.5 601L0 601Z" fill="#d53867"></path><path d="M0 551L21.5 550.5C43 550 86 549 128.8 546.7C171.7 544.3 214.3 540.7 257.2 537.2C300 533.7 343 530.3 385.8 532C428.7 533.7 471.3 540.3 514.2 541.7C557 543 600 539 642.8 540.5C685.7 542 728.3 549 771.2 549.7C814 550.3 857 544.7 878.5 541.8L900 539L900 601L878.5 601C857 601 814 601 771.2 601C728.3 601 685.7 601 642.8 601C600 601 557 601 514.2 601C471.3 601 428.7 601 385.8 601C343 601 300 601 257.2 601C214.3 601 171.7 601 128.8 601C86 601 43 601 21.5 601L0 601Z" fill="#c62368"></path></svg>